<svg xmlns="http://www.w3.org/2000/svg" xmlns:xlink="http://www.w3.org/1999/xlink" id="Layer_1" x="0" y="0" version="1.1" viewBox="0 0 30.7 30.5" xml:space="preserve" style="enable-background:new 0 0 30.7 30.5"><style type="text/css">.st0{fill:#929494}.st1{fill:#f1f1f1}</style><path d="M27.8,30H2.9c-1.2,0-2.1-0.9-2.1-2.1V2.9c0-1.2,0.9-2.1,2.1-2.1h24.9C29,0.8,30,1.7,30,2.9v24.9	C30,29,29,30,27.8,30z" class="st0"/><path d="M13.1,12.8l-5.6,5.6c-0.3,0.3-0.7,0.3-1,0l-0.7-0.7c-0.3-0.3-0.3-0.7,0-1l4.5-4.5L5.8,7.8c-0.3-0.3-0.3-0.7,0-1	l0.7-0.7c0.3-0.3,0.7-0.3,1,0l5.6,5.6C13.4,12.1,13.4,12.5,13.1,12.8z M24.1,18.1v-0.9c0-0.4-0.3-0.7-0.7-0.7h-8.8	c-0.4,0-0.7,0.3-0.7,0.7v0.9c0,0.4,0.3,0.7,0.7,0.7h8.8C23.8,18.8,24.1,18.5,24.1,18.1z" class="st1"/></svg>