<svg xmlns="http://www.w3.org/2000/svg" xmlns:xlink="http://www.w3.org/1999/xlink" id="Layer_1" x="0" y="0" version="1.1" viewBox="0 0 30.7 30.5" xml:space="preserve" style="enable-background:new 0 0 30.7 30.5"><style type="text/css">.st0{fill:#929494}.st1{fill:none;stroke:#f1f1f1;stroke-width:1.5591;stroke-miterlimit:10}</style><path d="M27.8,30H2.9c-1.2,0-2.1-0.9-2.1-2.1V2.9c0-1.2,0.9-2.1,2.1-2.1h24.9C29,0.8,30,1.7,30,2.9v24.9	C30,29,29,30,27.8,30z" class="st0"/><g><path d="M2.6,9.4c2.6,0,2.6,12,5.1,12c2.6,0,2.6-12,5.1-12c2.6,0,2.6,12,5.1,12c2.6,0,2.6-12,5.1-12s2.6,12,5.1,12" class="st1"/></g></svg>