<svg xmlns="http://www.w3.org/2000/svg" xmlns:xlink="http://www.w3.org/1999/xlink" id="Layer_1" x="0" y="0" version="1.1" viewBox="0 0 35 35" xml:space="preserve" style="enable-background:new 0 0 35 35"><style type="text/css">.st0{fill:#ff5e5b}.st1{fill:#fff}</style><circle cx="17.5" cy="17.5" r="17.5" class="st0"/><path d="M24.2,7c3.5,2.2,5.9,6.2,5.9,10.7c0,7-5.6,12.6-12.6,12.6c-7,0-12.6-5.7-12.7-12.6c0-4.3,2.2-8.4,5.9-10.7	c0.3-0.2,0.7-0.1,0.8,0.2c0,0,0,0,0,0l0.6,1.1c0.2,0.3,0.1,0.6-0.2,0.8c-2.9,1.9-4.7,5.1-4.7,8.6c0,5.6,4.6,10.2,10.2,10.2h0	c5.6,0,10.2-4.6,10.2-10.2c0-3.5-1.8-6.7-4.7-8.6c-0.3-0.2-0.4-0.5-0.2-0.8l0.6-1.1C23.6,6.9,23.9,6.8,24.2,7C24.2,7,24.2,7,24.2,7z M18.7,18.7V5.3c0-0.3-0.3-0.6-0.6-0.6h-1.2c-0.3,0-0.6,0.3-0.6,0.6v13.4c0,0.3,0.3,0.6,0.6,0.6h0h1.2	C18.4,19.3,18.7,19.1,18.7,18.7z" class="st1"/></svg>